<svg xmlns="http://www.w3.org/2000/svg" viewBox="0 0 56.69 56.69" width="800" height="800"><defs><style>.cls-1{fill:#ccc;}.cls-2{fill:#666;}</style></defs><title>Asset 1</title><g id="Layer_2" data-name="Layer 2"><g id="Layer_1-2" data-name="Layer 1"><rect class="cls-1" width="56.69" height="56.69"/><path class="cls-2" d="M17.79,12a14.09,14.09,0,0,0-2.12,7.47,14.29,14.29,0,0,0,.69,4.38A2.33,2.33,0,0,0,15.05,26a2.26,2.26,0,0,0,2.19,2.32h0a14.72,14.72,0,0,0,4.26,9.17v1.77a.79.79,0,0,0,.09.36c.32.62,3.19,6.06,6.81,6.13h.07c3.61,0,6.46-5.51,6.77-6.14a.79.79,0,0,0,.08-.36V37.44a14.73,14.73,0,0,0,4.26-9.17h0A2.26,2.26,0,0,0,41.84,26a2.33,2.33,0,0,0-1.3-2.12,14.34,14.34,0,0,0,.12-8.4c.49,1,.8,1.9,1.09,2.51.18.38.85,0,.85,0,1.3-5.63-3.42-9.13-3.42-9.13C42.71,9,44,10.64,44,10.64c-3-5.2-7-3.82-7-3.81C31.47-1,19.35,4.35,19.35,4.35a25.73,25.73,0,0,1,8-.26C16.24,3.54,13.76,15,13.76,15,14.19,13.65,15.77,12.68,17.79,12Z"/><path class="cls-2" d="M56.33,50.39A40.68,40.68,0,0,0,37.89,40l0,0c-.44,7.25-4.42,13-9.27,13s-8.86-5.81-9.27-13.11h0A40.67,40.67,0,0,0,.36,50.39a1.2,1.2,0,0,0-.36.86V55.5a1.19,1.19,0,0,0,1.19,1.19H55.5a1.19,1.19,0,0,0,1.19-1.19V51.25A1.19,1.19,0,0,0,56.33,50.39Z"/></g></g></svg>
